<?xml version="1.0" encoding="UTF-8" standalone="no"?>
<!-- Created with Inkscape (http://www.inkscape.org/) -->

<svg
   version="1.1"
   id="svg1"
   width="4032"
   height="5376"
   viewBox="0 0 4032 5376"
   xml:space="preserve"
   xmlns="http://www.w3.org/2000/svg"
   xmlns:svg="http://www.w3.org/2000/svg"><defs
     id="defs1" /><g
     id="layer5"
     style="opacity:1"><g
       id="layer6"
       style="display:inline"><path
         d="m 580,1651.6873 v 283.0207 h 8.61038 v -261.5838 h 210.49085 0.013 c -0.0153,-0.01 -0.0309,-0.012 -0.0464,-0.018 l 176.94434,0.018 H 799.11425 c 8.71453,3.1059 17.50534,6.4513 26.28049,10.0209 8.79063,3.576 17.56531,7.3761 26.2322,11.3826 8.66688,4.0062 17.22574,8.2205 25.58414,12.6221 8.35841,4.4017 16.51756,8.9914 24.38277,13.7535 7.86521,4.762 15.437,9.6951 22.62428,14.7825 7.18728,5.0876 13.98966,10.3295 20.31431,15.7073 6.32465,5.378 12.17187,10.8926 17.44916,16.5259 2.63864,2.8166 5.13551,5.6634 7.47766,8.5373 2.34217,2.874 4.53035,5.7757 6.55295,8.7027 h 9.50725 v -133.4717 h -9.50725 -387.40183 z m 219.10123,21.4369 -210.4073,0.02 -0.0835,261.5642 c 4.33247,-14.682 8.98411,-29.1415 14.04175,-43.2851 2.52883,-7.0717 5.15766,-14.0649 7.90104,-20.9666 2.74338,-6.9018 5.60058,-13.7132 8.58067,-20.4217 2.98011,-6.7085 6.08443,-13.3142 9.32343,-19.8057 3.23899,-6.4916 6.61296,-12.8699 10.13301,-19.1211 3.52007,-6.2513 7.18617,-12.3762 11.00946,-18.3637 3.82331,-5.9874 7.80405,-11.837 11.95278,-17.5372 4.14871,-5.7001 8.46476,-11.2506 12.96105,-16.64 4.49631,-5.3893 9.17201,-10.6167 14.03805,-15.6718 4.86604,-5.0551 9.92393,-9.9376 15.18189,-14.635 5.25797,-4.6972 10.71682,-9.2092 16.38887,-13.5252 5.67204,-4.3161 11.55622,-8.4354 17.66453,-12.3467 6.10832,-3.9113 12.44032,-7.616 19.00707,-11.0992 6.56675,-3.4832 13.36911,-6.7456 20.41645,-9.777 7.04735,-3.0314 14.34069,-5.8316 21.89082,-8.3878 z m 1341.01597,-21.4369 v 283.0207 h -8.6104 v -261.5838 h -210.4908 -0.013 c 0.015,-0.01 0.031,-0.012 0.046,-0.018 l -176.9444,0.018 h 176.898 c -8.7146,3.1059 -17.5054,6.4513 -26.2805,10.0209 -8.7907,3.576 -17.5653,7.3761 -26.2322,11.3826 -8.6669,4.0062 -17.2258,8.2205 -25.5842,12.6221 -8.3584,4.4017 -16.5175,8.9914 -24.3827,13.7535 -7.8653,4.762 -15.437,9.6951 -22.6243,14.7825 -7.1873,5.0876 -13.9897,10.3295 -20.3143,15.7073 -6.3247,5.378 -12.1719,10.8926 -17.4492,16.5259 -2.6386,2.8166 -5.1355,5.6634 -7.4777,8.5373 -2.3421,2.874 -4.5303,5.7757 -6.5529,8.7027 h -9.5073 v -133.4717 h 9.5073 387.4018 z m -219.1012,21.4369 210.4073,0.02 0.084,261.5642 c -4.3325,-14.682 -8.9841,-29.1415 -14.0418,-43.2851 -2.5288,-7.0717 -5.1576,-14.0649 -7.901,-20.9666 -2.7434,-6.9018 -5.6006,-13.7132 -8.5807,-20.4217 -2.9801,-6.7085 -6.0844,-13.3142 -9.3234,-19.8057 -3.239,-6.4916 -6.613,-12.8699 -10.133,-19.1211 -3.5201,-6.2513 -7.1862,-12.3762 -11.0095,-18.3637 -3.8233,-5.9874 -7.804,-11.837 -11.9528,-17.5372 -4.1487,-5.7001 -8.4647,-11.2506 -12.961,-16.64 -4.4963,-5.3893 -9.172,-10.6167 -14.0381,-15.6718 -4.866,-5.0551 -9.9239,-9.9376 -15.1819,-14.635 -5.2579,-4.6972 -10.7168,-9.2092 -16.3888,-13.5252 -5.6721,-4.3161 -11.5562,-8.4354 -17.6646,-12.3467 -6.1083,-3.9113 -12.4403,-7.616 -19.007,-11.0992 -6.5668,-3.4832 -13.3691,-6.7456 -20.4165,-9.777 -7.0473,-3.0314 -14.3407,-5.8316 -21.8908,-8.3878 z"
         style="stroke-width:0.978656"
         id="path5" /><path
         d="m 121.48633,1769.6191 v 276.6465 h 14.68945 c 9.51913,-24.6391 18.4382,-49.5207 28.77149,-73.832 5.16664,-12.1557 10.68707,-24.1679 16.8125,-35.9375 6.12542,-11.7697 12.85565,-23.2976 20.44335,-34.4786 3.79386,-5.5904 7.80282,-11.0947 12.05665,-16.5 4.25382,-5.4053 8.75255,-10.7115 13.52929,-15.9062 4.77674,-5.1948 9.83077,-10.2774 15.19336,-15.2363 5.36259,-4.9589 11.0355,-9.7945 17.04688,-14.4922 6.01138,-4.6977 12.36283,-9.2588 19.08593,-13.67 6.72311,-4.4111 13.81669,-8.6722 21.31446,-12.7714 7.49776,-4.0993 15.39901,-8.0368 23.73437,-11.7989 8.33537,-3.762 17.1059,-7.3485 26.3418,-10.748 13.08152,4.8943 25.36375,10.0038 36.91016,15.3008 11.5464,5.2969 22.35784,10.7825 32.49609,16.4258 10.13825,5.6432 19.60389,11.4456 28.46094,17.3789 8.85704,5.9332 17.10579,11.9971 24.80859,18.164 7.7028,6.167 14.85965,12.437 21.53516,18.7813 6.6755,6.3443 12.86936,12.7632 18.64453,19.2285 5.77516,6.4653 11.13298,12.9778 16.13476,19.5078 5.00178,6.53 9.64856,13.0769 14.00391,19.6152 h 6.5 v -165.6777 h -6.5 -407.32422 z m 2477.14457,0 v 276.6465 h -14.6895 c -9.5191,-24.6391 -18.4382,-49.5207 -28.7715,-73.832 -5.1666,-12.1557 -10.687,-24.1679 -16.8125,-35.9375 -6.1254,-11.7697 -12.8556,-23.2976 -20.4433,-34.4786 -3.7939,-5.5904 -7.8028,-11.0947 -12.0567,-16.5 -4.2538,-5.4053 -8.7525,-10.7115 -13.5293,-15.9062 -4.7767,-5.1948 -9.8307,-10.2774 -15.1933,-15.2363 -5.3626,-4.9589 -11.0355,-9.7945 -17.0469,-14.4922 -6.0114,-4.6977 -12.3628,-9.2588 -19.0859,-13.67 -6.7231,-4.4111 -13.8167,-8.6722 -21.3145,-12.7714 -7.4977,-4.0993 -15.399,-8.0368 -23.7344,-11.7989 -8.3353,-3.762 -17.1059,-7.3485 -26.3418,-10.748 -13.0815,4.8943 -25.3637,10.0038 -36.9101,15.3008 -11.5464,5.2969 -22.3579,10.7825 -32.4961,16.4258 -10.1383,5.6432 -19.6039,11.4456 -28.4609,17.3789 -8.8571,5.9332 -17.1058,11.9971 -24.8086,18.164 -7.7028,6.167 -14.8597,12.437 -21.5352,18.7813 -6.6755,6.3443 -12.8694,12.7632 -18.6445,19.2285 -5.7752,6.4653 -11.133,12.9778 -16.1348,19.5078 -5.0018,6.53 -9.6485,13.0769 -14.0039,19.6152 h -6.5 v -165.6777 h 6.5 407.3242 z"
         id="path6" /><path
         style="display:inline;fill:#000000"
         d="M 1360.0586,1557.2998 C 1168.5141,1602.3107 1096.946,1757.5482 1020,1910.0586 v -274.9023 l -2.4707,-77.7344 z m 0,0 c 191.5445,45.0109 263.1126,200.2484 340.0586,352.7588 v -274.9023 l 2.4707,-77.7344 z"
         id="path1516" /><path
         id="rect2"
         d="m 1007.5689,1614.2516 12.6789,-0.071 -0.2478,295.8779 h -11.9255 z m 704.9794,0 -12.6789,-0.071 0.2478,295.8779 h 11.9255 z" /></g><g
       id="layer4"><path
         style="fill:#000000"
         d="m 1360.0757,1413.3154 -484.68507,-0.034 46.62317,80.7536 H 449.95193 l 71.86716,124.4776 H 46.470174 L 78.997086,1732.964 H 550 v -114.9048 l 502.1164,-2.8066 -1.1567,-60.1625 c -36.0248,33.5342 169.6501,10.42 309.116,2.8236 z m 0,0 484.6851,-0.034 -46.6232,80.7536 h 472.0619 l -71.8672,124.4776 h 475.3489 l -32.5269,114.4514 h -471.0029 v -114.9048 l -502.1164,-2.8066 1.1567,-60.1625 c 36.0248,33.5342 -169.6501,10.42 -309.116,2.8236 z"
         id="path1515" /></g><g
       id="layer3"
       style="display:inline"><path
         style="display:inline;fill:#000000"
         d="M 1365.9107,1054.3073 V 1420 H 1103.125 c 6.5198,-183.6988 75.4229,-325.4211 262.7857,-365.6927 z m 0,0 V 1420 h 262.7857 c -6.5198,-183.6988 -75.4229,-325.4211 -262.7857,-365.6927 z"
         id="path1514" /><g
         id="g2"
         transform="translate(5.835)"
         style="fill:#ffffff"><path
           id="rect1"
           d="m 1269.9675,1349.3715 46.8332,-3.5355 v 67.4454 h -46.8332 z m 180.2164,0 -46.8332,-3.5355 v 67.4454 h 46.8332 z"
           style="opacity:1;fill:#ffffff;stroke-width:0.972421" /><path
           id="rect1-4"
           d="m 1163.6976,1360.4862 38.9207,-6.7175 v 59.5127 h -38.9207 z m 392.7562,0 -38.9207,-6.7175 v 59.5127 h 38.9207 z"
           style="display:inline;opacity:1;fill:#ffffff" /><path
           id="rect1-5"
           d="m 1113.7821,1381.757 17.5307,-8.8388 v 40.3632 h -17.5307 z m 492.5872,0 -17.5307,-8.8388 v 40.3632 h 17.5307 z"
           style="display:inline;opacity:1;fill:#ffffff" /></g></g><g
       id="layer1"
       style="opacity:1"><path
         d="m 122.07212,1427.5566 c -0.5629,0 -1.1128,0.066 -1.64346,0.1903 -0.53066,0.1248 -1.04126,0.3053 -1.52885,0.5413 -0.48759,0.2358 -0.95133,0.5256 -1.38498,0.8607 -0.43367,0.3352 -0.83812,0.7169 -1.20699,1.1387 -0.36889,0.4218 -0.70166,0.8841 -0.99486,1.3801 -0.29318,0.4961 -0.54697,1.0272 -0.75345,1.5849 -0.20647,0.5578 -0.36674,1.1413 -0.47548,1.7483 -0.10874,0.607 -0.1658,1.2363 -0.1658,1.88 0,0.6437 0.0571,1.2731 0.1658,1.8801 0.10874,0.6068 0.26901,1.1905 0.47548,1.7482 0.20648,0.5578 0.46027,1.0888 0.75345,1.585 0.2932,0.496 0.62597,0.9583 0.99486,1.38 0.17226,0.197 0.37076,0.3457 0.5852,0.4658 0.21443,0.1198 0.44549,0.2116 0.68274,0.2926 0.47448,0.1619 0.97451,0.2837 1.424,0.5169 h -0.76321 v 15.1959 c -0.26086,0.7791 -0.54834,1.5523 -0.86073,2.3213 -0.31241,0.7689 -0.65079,1.5336 -1.00949,2.2945 -0.35869,0.7609 -0.73899,1.5175 -1.13871,2.2725 -0.39972,0.7551 -0.81783,1.5089 -1.25331,2.2603 -0.87099,1.5029 -1.8094,3.0005 -2.79192,4.5013 -0.98252,1.5007 -2.00918,3.0047 -3.06014,4.5207 -2.10196,3.032 -4.29938,6.1114 -6.42264,9.3072 -1.06163,1.5979 -2.105339,3.2244 -3.1089,4.8889 -1.003563,1.6644 -1.966716,3.3676 -2.869947,5.1156 -0.451615,0.8742 -0.888385,1.7597 -1.306959,2.6578 -0.418574,0.8983 -0.819424,1.8089 -1.199673,2.7335 -0.380248,0.9246 -0.738677,1.8633 -1.075315,2.8163 -0.336638,0.953 -0.651025,1.9205 -0.938767,2.904 -0.287743,0.9837 -0.549234,1.9831 -0.782713,2.9993 -0.233479,1.0162 -0.438053,2.0504 -0.612028,3.1015 -0.173974,1.0512 -0.317482,2.1183 -0.426712,3.2065 -0.109226,1.0881 -0.185083,2.1961 -0.224329,3.3234 -0.03925,1.1275 -0.04322,2.2742 -0.0074,3.443 0.0359,1.1688 0.112734,2.3599 0.229205,3.5723 0.116479,1.2122 0.273014,2.4459 0.47548,3.7038 0.202466,1.2578 0.449824,2.5397 0.743699,3.8452 0.293875,1.3056 0.633618,2.6361 1.024109,3.9917 0.390493,1.3555 0.831707,2.7352 1.324028,4.1428 0.492324,1.4075 1.036773,2.8419 1.636138,4.3036 0.599366,1.4618 1.253695,2.9516 1.965317,4.4695 V 1564.19 H 93.29941 c -0.271485,0 -0.536344,0.029 -0.792467,0.08 -0.256124,0.052 -0.503409,0.1297 -0.738822,0.2291 -0.235414,0.1 -0.458758,0.2197 -0.66811,0.3609 -0.209353,0.1413 -0.404825,0.3024 -0.582768,0.4804 -0.177942,0.1779 -0.339094,0.3734 -0.480356,0.5828 -0.141261,0.2093 -0.2615,0.4327 -0.360877,0.668 -0.09938,0.2355 -0.176916,0.4828 -0.229206,0.7388 -0.05228,0.2562 -0.08046,0.521 -0.08046,0.7926 v 11.175 H 85.53084 c -0.209238,0 -0.414709,0.02 -0.612027,0.061 -0.197318,0.04 -0.386813,0.1011 -0.568137,0.178 -0.181325,0.076 -0.353236,0.169 -0.514494,0.2779 -0.161257,0.1086 -0.31154,0.2336 -0.448658,0.3706 -0.137117,0.1371 -0.261712,0.2874 -0.37063,0.4487 -0.108914,0.1612 -0.201307,0.3331 -0.277973,0.5145 -0.07667,0.1813 -0.13764,0.3708 -0.178,0.5682 -0.04036,0.1972 -0.06096,0.4027 -0.06096,0.612 v 8.0786 h 15.737158 v 28.1045 h 47.669931 v -28.1045 h 15.73716 v -8.0783 c 0,-0.2092 -0.0206,-0.4147 -0.0609,-0.6119 -0.0403,-0.1974 -0.10137,-0.3869 -0.178,-0.5682 -0.0767,-0.1814 -0.16905,-0.3533 -0.27796,-0.5145 -0.10887,-0.1613 -0.23351,-0.3116 -0.37064,-0.4487 -0.13712,-0.1371 -0.28739,-0.2616 -0.44865,-0.3706 -0.16126,-0.1087 -0.33317,-0.2013 -0.51449,-0.2779 -0.18133,-0.076 -0.37083,-0.1377 -0.56814,-0.1781 -0.19732,-0.04 -0.40279,-0.061 -0.61203,-0.061 h -3.83554 v -11.1751 c 0,-0.2715 -0.0281,-0.5363 -0.0804,-0.7925 -0.0523,-0.256 -0.12979,-0.5033 -0.22921,-0.7388 -0.0994,-0.2353 -0.21964,-0.4587 -0.36087,-0.668 -0.14123,-0.2094 -0.30256,-0.4049 -0.48035,-0.5828 -0.17779,-0.178 -0.37367,-0.3391 -0.58278,-0.4804 -0.2091,-0.1412 -0.43052,-0.2616 -0.66566,-0.3609 -0.23516,-0.1 -0.48289,-0.1769 -0.73883,-0.2291 -0.25594,-0.053 -0.52099,-0.08 -0.79247,-0.08 h -3.24789 v -11.5481 c 0.71162,-1.518 1.36596,-3.0077 1.96532,-4.4695 0.59936,-1.4617 1.14382,-2.8962 1.63614,-4.3036 0.49232,-1.4077 0.93353,-2.7873 1.32402,-4.1429 0.3905,-1.3555 0.73024,-2.686 1.02412,-3.9916 0.29387,-1.3055 0.541,-2.5874 0.74369,-3.8452 0.2027,-1.2579 0.36114,-2.4916 0.47792,-3.7039 0.11673,-1.2123 0.19064,-2.4034 0.22676,-3.5722 0.0361,-1.1688 0.0343,-2.3155 -0.005,-3.443 -0.0392,-1.1273 -0.1151,-2.2353 -0.22433,-3.3235 -0.10924,-1.0881 -0.25273,-2.1553 -0.42672,-3.2064 -0.17397,-1.0511 -0.37855,-2.0853 -0.61202,-3.1015 -0.23348,-1.0163 -0.49497,-2.0156 -0.78272,-2.9993 -0.28774,-0.9835 -0.60212,-1.951 -0.93876,-2.904 -0.33665,-0.953 -0.69507,-1.8917 -1.07532,-2.8163 -0.38025,-0.9246 -0.7811,-1.8352 -1.19966,-2.7335 -0.41858,-0.8981 -0.85536,-1.7836 -1.30697,-2.6578 -0.90323,-1.7481 -1.86615,-3.4512 -2.86995,-5.1156 -1.00378,-1.6645 -2.0494,-3.291 -3.11135,-4.8889 -2.12387,-3.1959 -4.32068,-6.2753 -6.42263,-9.3072 -1.05096,-1.516 -2.07822,-3.02 -3.06013,-4.5207 -0.98191,-1.5008 -1.91852,-2.9984 -2.78948,-4.5013 -0.43549,-0.7513 -0.85337,-1.5052 -1.25332,-2.2603 -0.39995,-0.755 -0.78215,-1.5116 -1.14115,-2.2725 -0.359,-0.7609 -0.69684,-1.5256 -1.00948,-2.2945 -0.31264,-0.7691 -0.59988,-1.5422 -0.86074,-2.3214 v -15.1958 h -0.76076 c 0.44929,-0.2333 0.94944,-0.3549 1.42399,-0.5169 0.23728,-0.081 0.46829,-0.1727 0.68275,-0.2926 0.21444,-0.1199 0.41299,-0.2688 0.5852,-0.4658 0.36888,-0.4218 0.70189,-0.884 0.99485,-1.3801 0.29296,-0.4961 0.54484,-1.0272 0.75101,-1.585 0.20618,-0.5576 0.36697,-1.1413 0.47548,-1.7482 0.10849,-0.607 0.16582,-1.2363 0.16582,-1.88 0,-0.6437 -0.0573,-1.273 -0.16582,-1.88 -0.10849,-0.607 -0.2693,-1.1905 -0.47548,-1.7483 -0.20617,-0.5577 -0.45805,-1.0888 -0.75101,-1.5849 -0.29296,-0.496 -0.62597,-0.9583 -0.99485,-1.3802 -0.36888,-0.4217 -0.7731,-0.8035 -1.20699,-1.1387 -0.43389,-0.335 -0.89709,-0.6248 -1.38499,-0.8606 -0.48789,-0.236 -1.00039,-0.4171 -1.53128,-0.5414 -0.53089,-0.1248 -1.08057,-0.1902 -1.64345,-0.1902 z m 2476.00718,0 c 0.5629,0 1.1128,0.066 1.6434,0.1903 0.5307,0.1248 1.0413,0.3053 1.5289,0.5413 0.4876,0.2358 0.9513,0.5256 1.385,0.8607 0.4336,0.3352 0.8381,0.7169 1.207,1.1387 0.3689,0.4218 0.7016,0.8841 0.9948,1.3801 0.2932,0.4961 0.547,1.0272 0.7535,1.5849 0.2064,0.5578 0.3667,1.1413 0.4755,1.7483 0.1087,0.607 0.1658,1.2363 0.1658,1.88 0,0.6437 -0.057,1.2731 -0.1658,1.8801 -0.1088,0.6068 -0.2691,1.1905 -0.4755,1.7482 -0.2065,0.5578 -0.4603,1.0888 -0.7535,1.585 -0.2932,0.496 -0.6259,0.9583 -0.9948,1.38 -0.1723,0.197 -0.3708,0.3457 -0.5852,0.4658 -0.2145,0.1198 -0.4455,0.2116 -0.6828,0.2926 -0.4745,0.1619 -0.9745,0.2837 -1.424,0.5169 h 0.7632 v 15.1959 c 0.2609,0.7791 0.5484,1.5523 0.8608,2.3213 0.3124,0.7689 0.6508,1.5336 1.0095,2.2945 0.3586,0.7609 0.7389,1.5175 1.1387,2.2725 0.3997,0.7551 0.8178,1.5089 1.2533,2.2603 0.871,1.5029 1.8094,3.0005 2.7919,4.5013 0.9825,1.5007 2.0092,3.0047 3.0601,4.5207 2.102,3.032 4.2994,6.1114 6.4227,9.3072 1.0616,1.5979 2.1053,3.2244 3.1089,4.8889 1.0035,1.6644 1.9667,3.3676 2.8699,5.1156 0.4516,0.8742 0.8884,1.7597 1.307,2.6578 0.4186,0.8983 0.8194,1.8089 1.1996,2.7335 0.3803,0.9246 0.7387,1.8633 1.0754,2.8163 0.3366,0.953 0.651,1.9205 0.9387,2.904 0.2878,0.9837 0.5493,1.9831 0.7827,2.9993 0.2335,1.0162 0.4381,2.0504 0.6121,3.1015 0.1739,1.0512 0.3175,2.1183 0.4267,3.2065 0.1092,1.0881 0.1851,2.1961 0.2243,3.3234 0.039,1.1275 0.043,2.2742 0.01,3.443 -0.036,1.1688 -0.1127,2.3599 -0.2292,3.5723 -0.1165,1.2122 -0.273,2.4459 -0.4755,3.7038 -0.2024,1.2578 -0.4498,2.5397 -0.7437,3.8452 -0.2938,1.3056 -0.6336,2.6361 -1.0241,3.9917 -0.3905,1.3555 -0.8317,2.7352 -1.324,4.1428 -0.4923,1.4075 -1.0368,2.8419 -1.6361,4.3036 -0.5994,1.4618 -1.2537,2.9516 -1.9654,4.4695 v 11.5481 h 3.2455 c 0.2715,0 0.5363,0.029 0.7925,0.08 0.2561,0.052 0.5034,0.1297 0.7388,0.2291 0.2354,0.1 0.4587,0.2197 0.6681,0.3609 0.2093,0.1413 0.4048,0.3024 0.5828,0.4804 0.1779,0.1779 0.3391,0.3734 0.4803,0.5828 0.1413,0.2093 0.2615,0.4327 0.3609,0.668 0.099,0.2355 0.1769,0.4828 0.2292,0.7388 0.052,0.2562 0.081,0.521 0.081,0.7926 v 11.175 h 3.8355 c 0.2092,0 0.4147,0.02 0.612,0.061 0.1973,0.04 0.3868,0.1011 0.5681,0.178 0.1813,0.076 0.3533,0.169 0.5145,0.2779 0.1613,0.1086 0.3116,0.2336 0.4487,0.3706 0.1371,0.1371 0.2617,0.2874 0.3706,0.4487 0.1089,0.1612 0.2013,0.3331 0.278,0.5145 0.077,0.1813 0.1376,0.3708 0.178,0.5682 0.04,0.1972 0.061,0.4027 0.061,0.612 v 8.0786 h -15.7371 v 28.1045 h -47.6699 v -28.1045 h -15.7372 v -8.0783 c 0,-0.2092 0.021,-0.4147 0.061,-0.6119 0.04,-0.1974 0.1014,-0.3869 0.178,-0.5682 0.077,-0.1814 0.169,-0.3533 0.278,-0.5145 0.1088,-0.1613 0.2335,-0.3116 0.3706,-0.4487 0.1371,-0.1371 0.2874,-0.2616 0.4486,-0.3706 0.1613,-0.1087 0.3332,-0.2013 0.5145,-0.2779 0.1814,-0.076 0.3709,-0.1377 0.5682,-0.1781 0.1973,-0.04 0.4028,-0.061 0.612,-0.061 h 3.8355 v -11.1751 c 0,-0.2715 0.028,-0.5363 0.08,-0.7925 0.052,-0.256 0.1298,-0.5033 0.2293,-0.7388 0.099,-0.2353 0.2196,-0.4587 0.3608,-0.668 0.1413,-0.2094 0.3026,-0.4049 0.4804,-0.5828 0.1778,-0.178 0.3736,-0.3391 0.5828,-0.4804 0.2091,-0.1412 0.4305,-0.2616 0.6656,-0.3609 0.2352,-0.1 0.4829,-0.1769 0.7388,-0.2291 0.256,-0.053 0.521,-0.08 0.7925,-0.08 h 3.2479 v -11.5481 c -0.7116,-1.518 -1.366,-3.0077 -1.9653,-4.4695 -0.5994,-1.4617 -1.1438,-2.8962 -1.6362,-4.3036 -0.4923,-1.4077 -0.9335,-2.7873 -1.324,-4.1429 -0.3905,-1.3555 -0.7302,-2.686 -1.0241,-3.9916 -0.2939,-1.3055 -0.541,-2.5874 -0.7437,-3.8452 -0.2027,-1.2579 -0.3611,-2.4916 -0.4779,-3.7039 -0.1167,-1.2123 -0.1906,-2.4034 -0.2268,-3.5722 -0.036,-1.1688 -0.034,-2.3155 0.01,-3.443 0.039,-1.1273 0.1151,-2.2353 0.2244,-3.3235 0.1092,-1.0881 0.2527,-2.1553 0.4267,-3.2064 0.174,-1.0511 0.3785,-2.0853 0.612,-3.1015 0.2335,-1.0163 0.495,-2.0156 0.7827,-2.9993 0.2878,-0.9835 0.6021,-1.951 0.9388,-2.904 0.3366,-0.953 0.6951,-1.8917 1.0753,-2.8163 0.3803,-0.9246 0.7811,-1.8352 1.1997,-2.7335 0.4185,-0.8981 0.8553,-1.7836 1.3069,-2.6578 0.9033,-1.7481 1.8662,-3.4512 2.87,-5.1156 1.0038,-1.6645 2.0494,-3.291 3.1113,-4.8889 2.1239,-3.1959 4.3207,-6.2753 6.4227,-9.3072 1.0509,-1.516 2.0782,-3.02 3.0601,-4.5207 0.9819,-1.5008 1.9185,-2.9984 2.7895,-4.5013 0.4355,-0.7513 0.8533,-1.5052 1.2533,-2.2603 0.3999,-0.755 0.7821,-1.5116 1.1411,-2.2725 0.359,-0.7609 0.6969,-1.5256 1.0095,-2.2945 0.3127,-0.7691 0.5999,-1.5422 0.8608,-2.3214 v -15.1958 h 0.7607 c -0.4493,-0.2333 -0.9494,-0.3549 -1.424,-0.5169 -0.2372,-0.081 -0.4683,-0.1727 -0.6827,-0.2926 -0.2145,-0.1199 -0.413,-0.2688 -0.5852,-0.4658 -0.3689,-0.4218 -0.7019,-0.884 -0.9949,-1.3801 -0.2929,-0.4961 -0.5448,-1.0272 -0.751,-1.585 -0.2062,-0.5576 -0.3669,-1.1413 -0.4755,-1.7482 -0.1084,-0.607 -0.1658,-1.2363 -0.1658,-1.88 0,-0.6437 0.057,-1.273 0.1658,-1.88 0.1085,-0.607 0.2693,-1.1905 0.4755,-1.7483 0.2062,-0.5577 0.4581,-1.0888 0.751,-1.5849 0.293,-0.496 0.626,-0.9583 0.9949,-1.3802 0.3689,-0.4217 0.7731,-0.8035 1.207,-1.1387 0.4339,-0.335 0.8971,-0.6248 1.385,-0.8606 0.4879,-0.236 1.0004,-0.4171 1.5312,-0.5414 0.5309,-0.1248 1.0806,-0.1902 1.6435,-0.1902 z"
         style="opacity:1;stroke-width:1.24844"
         id="path23" /></g></g></svg>
